<svg width="1000" height="400" viewBox="0 0 1000 400" fill="none" xmlns="http://www.w3.org/2000/svg">
<path d="M420.988 211.764H401.726L398.063 222.75H386.381L406.23 169.43H416.411L436.369 222.75H424.687L420.988 211.764ZM404.692 202.865H418.022L411.32 182.906L404.692 202.865ZM457.133 214.95C459.086 214.95 460.673 214.413 461.894 213.338C463.115 212.264 463.75 210.836 463.798 209.054H473.723C473.698 211.739 472.966 214.205 471.525 216.451C470.085 218.673 468.107 220.406 465.593 221.651C463.103 222.872 460.344 223.482 457.316 223.482C451.652 223.482 447.185 221.688 443.913 218.099C440.642 214.486 439.006 209.505 439.006 203.158V202.462C439.006 196.358 440.629 191.488 443.876 187.85C447.124 184.212 451.579 182.394 457.243 182.394C462.199 182.394 466.167 183.81 469.145 186.642C472.148 189.449 473.674 193.197 473.723 197.884H463.798C463.75 195.833 463.115 194.173 461.894 192.904C460.673 191.61 459.062 190.963 457.06 190.963C454.594 190.963 452.727 191.866 451.457 193.673C450.212 195.455 449.589 198.36 449.589 202.389V203.487C449.589 207.564 450.212 210.494 451.457 212.276C452.702 214.059 454.594 214.95 457.133 214.95ZM489.689 183.126L490.019 187.557C492.827 184.115 496.623 182.394 501.408 182.394C506.511 182.394 510.014 184.408 511.918 188.436C514.702 184.408 518.669 182.394 523.82 182.394C528.117 182.394 531.315 183.651 533.415 186.166C535.515 188.656 536.564 192.416 536.564 197.445V222.75H525.944V197.481C525.944 195.235 525.505 193.6 524.626 192.574C523.747 191.524 522.197 191 519.975 191C516.801 191 514.604 192.513 513.383 195.541L513.42 222.75H502.836V197.518C502.836 195.223 502.385 193.563 501.481 192.538C500.578 191.512 499.04 191 496.867 191C493.864 191 491.691 192.245 490.349 194.735V222.75H479.765V183.126H489.689ZM562.968 223.482C557.158 223.482 552.421 221.7 548.759 218.136C545.122 214.571 543.303 209.823 543.303 203.89V202.865C543.303 198.885 544.072 195.333 545.61 192.208C547.148 189.059 549.321 186.642 552.128 184.957C554.96 183.248 558.183 182.394 561.796 182.394C567.216 182.394 571.477 184.103 574.577 187.521C577.702 190.938 579.265 195.785 579.265 202.059V206.38H554.033C554.375 208.968 555.4 211.043 557.109 212.606C558.842 214.168 561.027 214.95 563.664 214.95C567.741 214.95 570.927 213.473 573.222 210.519L578.422 216.341C576.835 218.587 574.687 220.345 571.977 221.615C569.267 222.86 566.264 223.482 562.968 223.482ZM561.76 190.963C559.66 190.963 557.951 191.671 556.633 193.087C555.339 194.503 554.509 196.529 554.143 199.166H568.864V198.324C568.815 195.98 568.181 194.173 566.96 192.904C565.739 191.61 564.006 190.963 561.76 190.963ZM646.538 204.989C646.123 210.726 643.999 215.243 640.166 218.539C636.357 221.834 631.328 223.482 625.078 223.482C618.242 223.482 612.858 221.188 608.928 216.598C605.021 211.983 603.068 205.66 603.068 197.628V194.369C603.068 189.242 603.972 184.725 605.778 180.819C607.585 176.913 610.161 173.922 613.505 171.847C616.875 169.747 620.781 168.697 625.224 168.697C631.376 168.697 636.333 170.345 640.092 173.641C643.852 176.937 646.025 181.563 646.611 187.521H635.625C635.356 184.078 634.392 181.588 632.731 180.05C631.096 178.487 628.593 177.706 625.224 177.706C621.562 177.706 618.815 179.024 616.984 181.661C615.178 184.273 614.25 188.338 614.201 193.856V197.884C614.201 203.646 615.068 207.857 616.801 210.519C618.559 213.18 621.318 214.51 625.078 214.51C628.471 214.51 630.998 213.741 632.658 212.203C634.343 210.641 635.307 208.236 635.551 204.989H646.538ZM651.408 202.572C651.408 198.641 652.165 195.138 653.679 192.062C655.192 188.985 657.365 186.605 660.197 184.92C663.054 183.236 666.362 182.394 670.122 182.394C675.468 182.394 679.826 184.029 683.195 187.301C686.589 190.572 688.481 195.016 688.872 200.631L688.945 203.341C688.945 209.42 687.248 214.303 683.854 217.989C680.461 221.651 675.908 223.482 670.195 223.482C664.482 223.482 659.917 221.651 656.499 217.989C653.105 214.327 651.408 209.347 651.408 203.048V202.572ZM661.992 203.341C661.992 207.101 662.7 209.981 664.116 211.983C665.532 213.961 667.558 214.95 670.195 214.95C672.758 214.95 674.76 213.973 676.201 212.02C677.641 210.042 678.361 206.893 678.361 202.572C678.361 198.885 677.641 196.029 676.201 194.002C674.76 191.976 672.734 190.963 670.122 190.963C667.534 190.963 665.532 191.976 664.116 194.002C662.7 196.004 661.992 199.117 661.992 203.341ZM717.729 193.05C716.289 192.855 715.019 192.757 713.92 192.757C709.917 192.757 707.292 194.112 706.047 196.822V222.75H695.463V183.126H705.461L705.754 187.85C707.878 184.212 710.82 182.394 714.58 182.394C715.751 182.394 716.85 182.552 717.875 182.87L717.729 193.05ZM758.525 203.304C758.525 209.408 757.133 214.303 754.35 217.989C751.591 221.651 747.856 223.482 743.144 223.482C739.14 223.482 735.905 222.091 733.439 219.308V237.984H722.856V183.126H732.67L733.037 187.008C735.6 183.932 738.945 182.394 743.071 182.394C747.954 182.394 751.75 184.2 754.46 187.813C757.17 191.427 758.525 196.407 758.525 202.755V203.304ZM747.941 202.535C747.941 198.849 747.282 196.004 745.964 194.002C744.67 192 742.778 191 740.288 191C736.967 191 734.685 192.269 733.439 194.808V211.031C734.733 213.644 737.041 214.95 740.361 214.95C745.415 214.95 747.941 210.812 747.941 202.535Z" fill="black"/>
<path d="M370.077 236.33L315.306 141.514C314.756 140.55 313.655 140 312.554 140H290.673C289.572 140 288.471 140.55 287.921 141.514L233.288 236.33C232.737 237.294 232.737 238.532 233.288 239.495L244.297 258.486C244.847 259.45 245.948 260 247.049 260H356.453C357.554 260 358.655 259.45 359.205 258.486L370.214 239.495C370.627 238.532 370.627 237.294 370.077 236.33ZM292.6 146.33H307.187L266.178 217.339C265.627 218.303 265.627 219.541 266.178 220.505C266.728 221.468 267.829 222.018 268.93 222.018H310.903L318.196 234.679H241.545L292.6 146.33ZM301.682 206.33L307.187 215.826H296.178L301.682 206.33ZM241.545 241.009H323.563C324.664 241.009 325.765 240.459 326.315 239.495C326.866 238.532 326.866 237.294 326.315 236.33L305.398 200L312.692 187.339L350.948 253.67H248.838L241.545 241.009ZM356.453 250.505L315.306 179.495C314.756 178.532 313.655 177.982 312.554 177.982C311.453 177.982 310.352 178.532 309.802 179.495L288.884 215.826H274.297L312.692 149.495L363.747 237.982L356.453 250.505Z" fill="black"/>
</svg>
