<svg width="1000" height="1000" viewBox="0 0 1000 1000" fill="none" xmlns="http://www.w3.org/2000/svg">
<path d="M189.564 655.995H151.128L143.821 677.916H120.512L160.116 571.524H180.43L220.254 677.916H196.944L189.564 655.995ZM157.047 638.238H183.645L170.273 598.414L157.047 638.238ZM261.686 662.352C265.583 662.352 268.749 661.28 271.185 659.137C273.621 656.993 274.887 654.143 274.985 650.587H294.787C294.738 655.946 293.277 660.866 290.403 665.348C287.528 669.781 283.583 673.239 278.565 675.724C273.596 678.16 268.091 679.377 262.051 679.377C250.749 679.377 241.834 675.797 235.307 668.636C228.779 661.426 225.515 651.489 225.515 638.823V637.434C225.515 625.256 228.755 615.537 235.234 608.279C241.713 601.02 250.603 597.391 261.905 597.391C271.794 597.391 279.71 600.217 285.653 605.868C291.645 611.47 294.689 618.947 294.787 628.3H274.985C274.887 624.208 273.621 620.896 271.185 618.363C268.749 615.781 265.534 614.49 261.539 614.49C256.619 614.49 252.893 616.292 250.359 619.897C247.875 623.453 246.633 629.25 246.633 637.288V639.48C246.633 647.616 247.875 653.461 250.359 657.018C252.844 660.574 256.619 662.352 261.686 662.352ZM326.646 598.853L327.304 607.694C332.906 600.826 340.481 597.391 350.029 597.391C360.21 597.391 367.201 601.41 371 609.448C376.554 601.41 384.47 597.391 394.749 597.391C403.322 597.391 409.704 599.9 413.893 604.918C418.083 609.886 420.178 617.388 420.178 627.424V677.916H398.987V627.497C398.987 623.015 398.11 619.751 396.356 617.705C394.603 615.61 391.509 614.563 387.076 614.563C380.743 614.563 376.359 617.583 373.923 623.624L373.996 677.916H352.879V627.57C352.879 622.991 351.978 619.678 350.175 617.632C348.373 615.586 345.304 614.563 340.968 614.563C334.976 614.563 330.641 617.047 327.961 622.016V677.916H306.844V598.853H326.646ZM472.862 679.377C461.268 679.377 451.817 675.821 444.51 668.709C437.252 661.597 433.623 652.122 433.623 640.284V638.238C433.623 630.298 435.157 623.21 438.226 616.974C441.295 610.69 445.631 605.868 451.233 602.506C456.884 599.096 463.314 597.391 470.524 597.391C481.338 597.391 489.839 600.801 496.026 607.621C502.261 614.441 505.379 624.111 505.379 636.631V645.253H455.033C455.715 650.417 457.761 654.558 461.171 657.675C464.629 660.793 468.989 662.352 474.25 662.352C482.386 662.352 488.743 659.405 493.322 653.51L503.698 665.129C500.532 669.61 496.245 673.118 490.838 675.651C485.43 678.135 479.438 679.377 472.862 679.377ZM470.451 614.49C466.261 614.49 462.851 615.903 460.221 618.728C457.639 621.554 455.983 625.597 455.252 630.858H484.627V629.177C484.529 624.501 483.263 620.896 480.827 618.363C478.391 615.781 474.932 614.49 470.451 614.49ZM639.611 642.476C638.783 653.924 634.545 662.936 626.897 669.513C619.297 676.089 609.262 679.377 596.791 679.377C583.151 679.377 572.41 674.798 564.567 665.64C556.772 656.433 552.875 643.816 552.875 627.789V621.286C552.875 611.056 554.678 602.043 558.283 594.249C561.887 586.455 567.027 580.487 573.701 576.347C580.423 572.157 588.218 570.063 597.084 570.063C609.36 570.063 619.249 573.351 626.751 579.927C634.253 586.504 638.588 595.735 639.757 607.621H617.836C617.3 600.753 615.376 595.784 612.063 592.715C608.799 589.597 603.806 588.038 597.084 588.038C589.776 588.038 584.296 590.669 580.642 595.93C577.038 601.142 575.186 609.253 575.089 620.263V628.3C575.089 639.797 576.818 648.2 580.277 653.51C583.785 658.82 589.289 661.475 596.791 661.475C603.563 661.475 608.604 659.94 611.917 656.871C615.278 653.754 617.203 648.955 617.69 642.476H639.611ZM649.33 637.654C649.33 629.811 650.84 622.82 653.86 616.682C656.88 610.544 661.216 605.794 666.867 602.433C672.566 599.072 679.167 597.391 686.669 597.391C697.338 597.391 706.033 600.655 712.756 607.183C719.527 613.711 723.302 622.577 724.082 633.781L724.228 639.188C724.228 651.318 720.842 661.061 714.071 668.417C707.3 675.724 698.214 679.377 686.815 679.377C675.416 679.377 666.307 675.724 659.487 668.417C652.715 661.11 649.33 651.172 649.33 638.604V637.654ZM670.447 639.188C670.447 646.69 671.86 652.438 674.685 656.433C677.511 660.379 681.554 662.352 686.815 662.352C691.93 662.352 695.925 660.403 698.799 656.506C701.673 652.56 703.11 646.276 703.11 637.654C703.11 630.298 701.673 624.598 698.799 620.555C695.925 616.512 691.882 614.49 686.669 614.49C681.505 614.49 677.511 616.512 674.685 620.555C671.86 624.549 670.447 630.761 670.447 639.188ZM781.662 618.655C778.788 618.265 776.255 618.07 774.063 618.07C766.073 618.07 760.837 620.774 758.352 626.181V677.916H737.235V598.853H757.183L757.768 608.279C762.006 601.02 767.876 597.391 775.378 597.391C777.716 597.391 779.908 597.708 781.954 598.341L781.662 618.655ZM863.064 639.115C863.064 651.294 860.287 661.061 854.734 668.417C849.229 675.724 841.776 679.377 832.374 679.377C824.385 679.377 817.93 676.601 813.01 671.047V708.314H791.892V598.853H811.475L812.206 606.598C817.321 600.46 823.995 597.391 832.228 597.391C841.97 597.391 849.545 600.996 854.953 608.206C860.36 615.416 863.064 625.353 863.064 638.019V639.115ZM841.946 637.581C841.946 630.225 840.631 624.549 838 620.555C835.418 616.56 831.643 614.563 826.674 614.563C820.049 614.563 815.494 617.096 813.01 622.162V654.533C815.592 659.746 820.195 662.352 826.82 662.352C836.904 662.352 841.946 654.095 841.946 637.581Z" fill="black"/>
<path d="M636.764 479.211L527.478 290.02C526.38 288.098 524.183 287 521.986 287H478.327C476.13 287 473.933 288.098 472.835 290.02L363.824 479.211C362.725 481.134 362.725 483.605 363.824 485.527L385.791 523.42C386.889 525.342 389.086 526.441 391.283 526.441H609.58C611.777 526.441 613.973 525.342 615.072 523.42L637.039 485.527C637.862 483.605 637.862 481.134 636.764 479.211ZM482.171 299.631H511.277L429.45 441.318C428.352 443.24 428.352 445.712 429.45 447.634C430.549 449.556 432.745 450.654 434.942 450.654H518.691L533.244 475.916H380.299L482.171 299.631ZM500.294 419.351L511.277 438.298H489.31L500.294 419.351ZM380.299 488.547H543.953C546.15 488.547 548.347 487.449 549.445 485.527C550.543 483.605 550.543 481.134 549.445 479.211L507.708 406.72L522.261 381.458L598.596 513.81H394.852L380.299 488.547ZM609.58 507.494L527.478 365.807C526.38 363.885 524.183 362.786 521.986 362.786C519.79 362.786 517.593 363.885 516.495 365.807L474.757 438.298H445.651L522.261 305.947L624.133 482.507L609.58 507.494Z" fill="black"/>
</svg>
